<svg xmlns="http://www.w3.org/2000/svg" width="6.64" height="15.028" viewBox="0 0 6.64 15.028"><defs><style>.a{fill:#fff;}</style></defs><g transform="translate(-31.139)"><path class="a" d="M37.58,13.406l-.21.858q-.945.373-1.508.568a3.977,3.977,0,0,1-1.308.2,2.61,2.61,0,0,1-1.779-.558,1.806,1.806,0,0,1-.635-1.417,5.013,5.013,0,0,1,.047-.682q.048-.349.153-.787L33.129,8.8q.105-.4.177-.759a3.3,3.3,0,0,0,.072-.653,1.01,1.01,0,0,0-.22-.745,1.244,1.244,0,0,0-.842-.21,2.206,2.206,0,0,0-.626.1c-.214.063-.4.124-.551.181l.211-.859q.774-.315,1.48-.539a4.427,4.427,0,0,1,1.338-.225,2.546,2.546,0,0,1,1.752.549,1.822,1.822,0,0,1,.616,1.426c0,.121-.013.334-.042.639a4.277,4.277,0,0,1-.158.84l-.784,2.775a7.372,7.372,0,0,0-.172.764,3.935,3.935,0,0,0-.077.649.935.935,0,0,0,.247.754,1.394,1.394,0,0,0,.858.2,2.476,2.476,0,0,0,.648-.1A3.625,3.625,0,0,0,37.58,13.406Zm.2-11.651a1.624,1.624,0,0,1-.548,1.236,1.867,1.867,0,0,1-1.32.511,1.888,1.888,0,0,1-1.327-.511,1.62,1.62,0,0,1-.554-1.236,1.637,1.637,0,0,1,.554-1.24,1.959,1.959,0,0,1,2.647,0A1.64,1.64,0,0,1,37.779,1.755Z"/></g></svg>