<svg xmlns="http://www.w3.org/2000/svg" width="461.222" height="256.834" viewBox="0 0 461.222 256.834"><defs><style>.a{opacity:0.14;}.b{fill:#f4f6ff;}</style></defs><g class="a" transform="translate(0 -113.445)"><path class="b" d="M325.783,213.3c8.555-9.465,18.867-14.265,30.651-14.265,16.835,0,43.541,11.627,43.541,42.823s-26.707,42.823-43.54,42.823c-11.785,0-22.1-4.8-30.651-14.265l-21.6-30.811-49.245-75.554-9.609,87.415,9.609,68.2,7.351,8.133c18.551,20.527,42.112,34.276,68.136,39.764a130.6,130.6,0,0,0,131.237-50.516c15.627-21.52,23.888-47.519,23.888-75.186s-8.261-53.666-23.889-75.185A130.606,130.606,0,0,0,330.427,116.16a124.756,124.756,0,0,0-51.671,24.367Z" transform="translate(-24.331 0)"/><g transform="translate(0 113.445)"><path class="b" d="M159.77,270.42c-8.555,9.465-18.867,14.265-30.651,14.265-16.835,0-43.541-11.627-43.541-42.823s26.707-42.823,43.54-42.823c11.784,0,22.1,4.8,30.651,14.265l21.6,30.81,49.245,75.555V164.056l-7.35-8.133c-18.551-20.527-42.112-34.276-68.136-39.764A130.6,130.6,0,0,0,23.889,166.676C8.261,188.2,0,214.195,0,241.862s8.261,53.666,23.889,75.185a130.605,130.605,0,0,0,131.237,50.516A124.755,124.755,0,0,0,206.8,343.2Z" transform="translate(0 -113.445)"/></g></g></svg>