<svg xmlns="http://www.w3.org/2000/svg" width="79.459" height="79.458" viewBox="0 0 79.459 79.458"><defs><style>.a{fill:#c71269;}.b,.c{fill:#fff;}.b{opacity:0.415;}</style></defs><g transform="translate(-962.271 -1435.304)"><circle class="a" cx="21" cy="21" r="21" transform="translate(981 1454)"/><g transform="translate(968.547 1441.58)"><path class="b" d="M39.729,0A39.729,39.729,0,1,0,79.459,39.729,39.729,39.729,0,0,0,39.729,0ZM56.461,41a2.838,2.838,0,0,1-1.274,1.274v.014l-22.7,11.351a2.838,2.838,0,0,1-4.106-2.554v-22.7a2.838,2.838,0,0,1,4.106-2.54l22.7,11.351A2.838,2.838,0,0,1,56.461,41Z" transform="translate(-6.276 -6.276)"/><path class="c" d="M33.453,0A33.453,33.453,0,1,0,66.906,33.453,33.453,33.453,0,0,0,33.453,0ZM47.542,34.519a2.39,2.39,0,0,1-1.073,1.073V35.6L27.353,45.162A2.39,2.39,0,0,1,23.9,43.011V23.9a2.39,2.39,0,0,1,3.458-2.139l19.116,9.558A2.389,2.389,0,0,1,47.542,34.519Z"/></g></g></svg>