<svg xmlns="http://www.w3.org/2000/svg" width="52.787" height="52.765" viewBox="0 0 52.787 52.765"><defs><style>.a{fill:#b0b7db;}</style></defs><g transform="translate(0 0)"><path class="a" d="M88.031,72.187h2.407a1.867,1.867,0,0,0,0-3.734H88.031a1.867,1.867,0,0,0,0,3.734m0-2.667h2.407a.8.8,0,0,1,0,1.6H88.031a.8.8,0,0,1,0-1.6" transform="translate(-59.549 -45.649)"/><path class="a" d="M49.838,110.576H47.431a1.867,1.867,0,1,0,0,3.734h2.407a1.867,1.867,0,1,0,0-3.734m0,2.667H47.431a.8.8,0,1,1,0-1.6h2.407a.8.8,0,1,1,0,1.6" transform="translate(-40.617 -65.292)"/><path class="a" d="M103.972,110.576h-2.406a1.867,1.867,0,0,0,0,3.734h2.406a1.867,1.867,0,1,0,0-3.734m0,2.667h-2.406a.8.8,0,0,1,0-1.6h2.406a.8.8,0,1,1,0,1.6" transform="translate(-65.86 -65.292)"/><path class="a" d="M76.9,68.452H74.5a1.867,1.867,0,1,0,0,3.734H76.9a1.867,1.867,0,1,0,0-3.734m0,2.667H74.5a.8.8,0,1,1,0-1.6H76.9a.8.8,0,1,1,0,1.6" transform="translate(-53.237 -45.649)"/><path class="a" d="M101.565,72.187h2.407a1.867,1.867,0,1,0,0-3.734h-2.407a1.867,1.867,0,0,0,0,3.734m0-2.667h2.407a.8.8,0,1,1,0,1.6h-2.407a.8.8,0,0,1,0-1.6" transform="translate(-65.86 -45.649)"/><path class="a" d="M114.52,72.1a1.868,1.868,0,0,0,3.644-.575v-1.2a1.87,1.87,0,0,0-1.867-1.868h-1.2a1.867,1.867,0,0,0-.577,3.643m.577-2.576h1.2a.8.8,0,0,1,.8.8v1.2a.8.8,0,0,1-1.6,0v-.4h-.4a.8.8,0,1,1,0-1.6" transform="translate(-72.169 -45.649)"/><path class="a" d="M115.1,113.262h1.2a1.869,1.869,0,0,0,1.867-1.866v-1.2a1.867,1.867,0,0,0-3.643-.579,1.867,1.867,0,0,0,.577,3.644m0-2.667h.4v-.4a.8.8,0,1,1,1.6,0v1.2a.8.8,0,0,1-.8.8h-1.2a.8.8,0,1,1,0-1.6" transform="translate(-72.169 -64.244)"/><path class="a" d="M76.9,110.576H74.5a1.867,1.867,0,1,0,0,3.734H76.9a1.867,1.867,0,1,0,0-3.734m0,2.667H74.5a.8.8,0,1,1,0-1.6H76.9a.8.8,0,1,1,0,1.6" transform="translate(-53.237 -65.292)"/><path class="a" d="M90.44,110.576h-2.41a1.867,1.867,0,0,0,0,3.734h2.41a1.867,1.867,0,0,0,0-3.734m0,2.667h-2.41a.8.8,0,0,1,0-1.6h2.41a.8.8,0,0,1,0,1.6" transform="translate(-59.549 -65.292)"/><path class="a" d="M63.374,110.576H60.965a1.867,1.867,0,0,0,0,3.734h2.409a1.867,1.867,0,0,0,0-3.734m0,2.667H60.965a.8.8,0,0,1,0-1.6h2.409a.8.8,0,0,1,0,1.6" transform="translate(-46.929 -65.292)"/><path class="a" d="M49.838,68.452H47.431a1.867,1.867,0,1,0,0,3.734h2.407a1.867,1.867,0,1,0,0-3.734m0,2.667H47.431a.8.8,0,1,1,0-1.6h2.407a.8.8,0,1,1,0,1.6" transform="translate(-40.617 -45.649)"/><path class="a" d="M63.374,68.452H60.965a1.867,1.867,0,0,0,0,3.734h2.409a1.867,1.867,0,0,0,0-3.734m0,2.667H60.965a.8.8,0,0,1,0-1.6h2.409a.8.8,0,0,1,0,1.6" transform="translate(-46.929 -45.649)"/><path class="a" d="M64.072,32.62A1.87,1.87,0,0,0,62.2,34.488v9.348a1.866,1.866,0,0,0,3.733,0V34.488a1.869,1.869,0,0,0-1.866-1.868m.8,11.216a.8.8,0,0,1-1.6,0V34.488a.8.8,0,1,1,1.6,0Z" transform="translate(-48.376 -28.94)"/><path class="a" d="M55.594,32.62a1.87,1.87,0,0,0-1.867,1.868v6.5a1.867,1.867,0,0,0,3.734,0v-6.5a1.87,1.87,0,0,0-1.867-1.868m.8,8.367a.8.8,0,0,1-1.6,0v-6.5a.8.8,0,1,1,1.6,0Z" transform="translate(-44.423 -28.94)"/><path class="a" d="M112.572,91.133a1,1,0,1,0,1,1,1.006,1.006,0,0,0-1-1" transform="translate(-71.395 -56.225)"/><path class="a" d="M87.081,55.565H86.035V48.779a4,4,0,0,0-4-4H77.207V35.756a3.968,3.968,0,0,0-4.686-3.906l-.988.182V29.975a4.253,4.253,0,0,0-4.248-4.25H46.19a4.253,4.253,0,0,0-4.248,4.25v7.493l-1.893.35A4.594,4.594,0,0,0,36.3,42.361s0,.007,0,.009V74.491a4,4,0,0,0,4,4H82.035a4,4,0,0,0,4-4V67.707h1.046a2,2,0,0,0,2-2V57.565a2,2,0,0,0-2-2M83.368,74.491a1.334,1.334,0,0,1-1.333,1.333H40.293a1.335,1.335,0,0,1-1.327-1.205,1.867,1.867,0,0,0-.006-3.486V52.14a1.867,1.867,0,0,0,0-3.488V47.257l.114.03.056.014c.076.02.151.039.221.052a5.019,5.019,0,0,0,.941.094H82.035a1.333,1.333,0,0,1,1.333,1.33V54.5H77.51a7.138,7.138,0,0,0,0,14.276h5.858ZM40.533,40.439l.342-.062v3.338h-.581a1.349,1.349,0,0,1-1.333-1.391,1.916,1.916,0,0,1,1.572-1.884m4.076-10.464a1.584,1.584,0,0,1,1.581-1.583h8.781V43.715H44.609Zm14.1-1.583h2.865V43.714H58.7Zm6.6,0h1.982a1.585,1.585,0,0,1,1.583,1.583V43.715H65.3Zm7.3,6.157.412-.076a1.214,1.214,0,0,1,.228-.02,1.3,1.3,0,0,1,1.3,1.3v7.958H72.6Zm2.271,27.087a2.6,2.6,0,1,1,2.6,2.6,2.6,2.6,0,0,1-2.6-2.6m11.542,3.4H78.844a3.67,3.67,0,0,0,0-6.808h7.569Z" transform="translate(-36.294 -25.725)"/></g></svg>