<svg id="visual" viewBox="0 0 900 600" width="900" height="600" xmlns="http://www.w3.org/2000/svg" xmlns:xlink="http://www.w3.org/1999/xlink" version="1.1"><rect x="0" y="0" width="900" height="600" fill="#2D2A5D"></rect><defs><linearGradient id="grad1_0" x1="33.3%" y1="100%" x2="100%" y2="0%"><stop offset="20%" stop-color="#2d2a5d" stop-opacity="1"></stop><stop offset="80%" stop-color="#2d2a5d" stop-opacity="1"></stop></linearGradient></defs><defs><linearGradient id="grad2_0" x1="0%" y1="100%" x2="66.7%" y2="0%"><stop offset="20%" stop-color="#2d2a5d" stop-opacity="1"></stop><stop offset="80%" stop-color="#2d2a5d" stop-opacity="1"></stop></linearGradient></defs><g transform="translate(900, 600)"><path d="M-324.5 0C-329.1 -20.8 -333.6 -41.7 -319.6 -56.3C-305.5 -71 -272.9 -79.5 -264.1 -96.1C-255.2 -112.7 -270.1 -137.3 -268.5 -155C-266.8 -172.7 -248.6 -183.3 -234.4 -196.7C-220.2 -210 -210 -226.1 -192.2 -229C-174.3 -232 -148.8 -222 -134 -232.1C-119.2 -242.2 -115.1 -272.5 -102.3 -281C-89.4 -289.4 -67.8 -276.1 -49.3 -279.7C-30.8 -283.3 -15.4 -303.9 0 -324.5L0 0Z" fill="#4A375F"></path></g><g transform="translate(0, 0)"><path d="M324.5 0C317.9 17.4 311.2 34.9 311.2 54.9C311.2 74.9 317.8 97.5 304.9 111C292.1 124.5 259.7 128.9 244.2 141C228.7 153.1 230.1 172.9 220.6 185.1C211.1 197.3 190.7 201.9 175.5 209.1C160.3 216.3 150.4 226.2 140 242.5C129.6 258.8 118.7 281.5 102.3 281C85.8 280.4 63.8 256.6 45.8 260C27.9 263.4 13.9 293.9 0 324.5L0 0Z" fill="#4A375F"></path></g></svg>