<svg id="visual" viewBox="0 0 900 600" width="900" height="600" xmlns="http://www.w3.org/2000/svg" xmlns:xlink="http://www.w3.org/1999/xlink" version="1.1"><rect x="0" y="0" width="900" height="600" fill="#CE2F7B"></rect><path d="M340 0L379 0L379 86L518 86L518 171L518 171L518 257L499 257L499 343L447 343L447 429L360 429L360 514L477 514L477 600L0 600L0 514L0 514L0 429L0 429L0 343L0 343L0 257L0 257L0 171L0 171L0 86L0 86L0 0L0 0Z" fill="#c71269"></path><path d="M279 0L294 0L294 86L229 86L229 171L231 171L231 257L265 257L265 343L233 343L233 429L285 429L285 514L358 514L358 600L0 600L0 514L0 514L0 429L0 429L0 343L0 343L0 257L0 257L0 171L0 171L0 86L0 86L0 0L0 0Z" fill="#c71269"></path><path d="M120 0L237 0L237 86L102 86L102 171L138 171L138 257L185 257L185 343L185 343L185 429L158 429L158 514L103 514L103 600L0 600L0 514L0 514L0 429L0 429L0 343L0 343L0 257L0 257L0 171L0 171L0 86L0 86L0 0L0 0Z" fill="#c71269"></path></svg>